<svg width="152" height="17" viewBox="0 0 152 17" fill="none" xmlns="http://www.w3.org/2000/svg">
<path d="M0.314453 1.60547H2.6582V16H0.314453V1.60547ZM10.0801 16H7.59961L4.88477 10.7852C4.8457 10.7852 4.80013 10.7917 4.74805 10.8047C4.70898 10.8047 4.64388 10.8047 4.55273 10.8047C4.46159 10.8047 4.32487 10.8047 4.14258 10.8047C3.97331 10.8047 3.74544 10.8047 3.45898 10.8047V9.08594H4.78711C5.07357 9.08594 5.36003 9.04036 5.64648 8.94922C5.93294 8.84505 6.19336 8.68229 6.42773 8.46094C6.66211 8.23958 6.85091 7.93359 6.99414 7.54297C7.13737 7.13932 7.20898 6.64453 7.20898 6.05859C7.20898 5.82422 7.17643 5.55729 7.11133 5.25781C7.04622 4.94531 6.90951 4.65234 6.70117 4.37891C6.50586 4.09245 6.22591 3.85807 5.86133 3.67578C5.49674 3.48047 5.01497 3.38281 4.41602 3.38281H3.45898V1.60547H4.45508C5.06706 1.60547 5.67253 1.70312 6.27148 1.89844C6.87044 2.09375 7.4043 2.38672 7.87305 2.77734C8.35482 3.16797 8.73893 3.64323 9.02539 4.20312C9.32487 4.75 9.47461 5.36849 9.47461 6.05859C9.47461 7.10026 9.23372 7.98568 8.75195 8.71484C8.27018 9.44401 7.61914 9.98438 6.79883 10.3359L10.0801 16ZM15.041 12.6797C15.041 13.2656 15.1582 13.7018 15.3926 13.9883C15.64 14.2747 15.9915 14.444 16.4473 14.4961V16.0781C16.3952 16.0911 16.3105 16.0977 16.1934 16.0977C15.7507 16.0977 15.321 16.0391 14.9043 15.9219C14.5007 15.8047 14.1426 15.6159 13.8301 15.3555C13.5176 15.0951 13.2702 14.75 13.0879 14.3203C12.9186 13.8906 12.834 13.3633 12.834 12.7383C12.834 12.1393 12.9577 11.625 13.2051 11.1953C13.4655 10.7526 13.791 10.3945 14.1816 10.1211C14.5853 9.83464 15.041 9.6263 15.5488 9.49609C16.0566 9.35286 16.571 9.28125 17.0918 9.28125H17.9512V10.668H17.5215C17.2611 10.668 16.9876 10.694 16.7012 10.7461C16.4147 10.7982 16.1478 10.8958 15.9004 11.0391C15.653 11.1823 15.4447 11.3906 15.2754 11.6641C15.1191 11.9245 15.041 12.263 15.041 12.6797ZM21.1152 12.7383C21.1152 12.8424 21.1217 12.9987 21.1348 13.207C21.1478 13.4023 21.1738 13.6042 21.2129 13.8125C21.252 14.0208 21.3105 14.2096 21.3887 14.3789C21.4798 14.5482 21.597 14.6589 21.7402 14.7109L21.1152 16.0195C20.946 16.0195 20.7637 15.9805 20.5684 15.9023C20.3861 15.8242 20.2038 15.7135 20.0215 15.5703C19.8522 15.4271 19.7025 15.2708 19.5723 15.1016C19.4551 14.9193 19.3639 14.724 19.2988 14.5156C19.1686 14.8411 18.9082 15.1341 18.5176 15.3945C18.14 15.6419 17.7168 15.8242 17.248 15.9414V14.457C17.5605 14.3919 17.8405 14.2682 18.0879 14.0859C18.3483 13.8906 18.5697 13.6628 18.752 13.4023V9.28125C18.752 8.64323 18.7194 8.13542 18.6543 7.75781C18.5892 7.38021 18.4785 7.10677 18.3223 6.9375C18.166 6.75521 17.9707 6.64453 17.7363 6.60547C17.515 6.55339 17.248 6.52734 16.9355 6.52734C16.6491 6.52734 16.3757 6.56641 16.1152 6.64453C15.8678 6.70964 15.6335 6.79427 15.4121 6.89844C15.2038 6.98958 15.015 7.09375 14.8457 7.21094C14.6895 7.32812 14.5723 7.41927 14.4941 7.48438L13.6152 6.13672C13.7454 5.99349 13.9408 5.85026 14.2012 5.70703C14.4616 5.55078 14.7611 5.41406 15.0996 5.29688C15.4382 5.17969 15.8027 5.08854 16.1934 5.02344C16.597 4.94531 17.0137 4.90625 17.4434 4.90625C17.834 4.90625 18.2116 4.94531 18.5762 5.02344C18.9538 5.10156 19.2923 5.23177 19.5918 5.41406C19.9043 5.59635 20.1712 5.84375 20.3926 6.15625C20.627 6.45573 20.7897 6.83333 20.8809 7.28906C20.972 7.74479 21.0306 8.20703 21.0566 8.67578C21.0957 9.13151 21.1152 9.58724 21.1152 10.043V12.582V12.7383ZM29.5527 2.46484C29.2923 2.46484 29.071 2.52995 28.8887 2.66016C28.7194 2.79036 28.5762 2.97266 28.459 3.20703C28.3418 3.44141 28.2572 3.71484 28.2051 4.02734C28.153 4.32682 28.1204 4.64583 28.1074 4.98438H29.8066V6.58594H28.0684V7.52344V16H25.6855V7.52344V6.58594H24.2402V4.98438H25.7246C25.7637 4.42448 25.8418 3.89062 25.959 3.38281C26.0762 2.86198 26.2585 2.41276 26.5059 2.03516C26.7663 1.64453 27.1113 1.33203 27.541 1.09766C27.9837 0.863281 28.5371 0.746094 29.2012 0.746094C29.3965 0.746094 29.6048 0.765625 29.8262 0.804688C30.0475 0.830729 30.2624 0.869792 30.4707 0.921875C30.6921 0.960938 30.8939 1.01302 31.0762 1.07812C31.2585 1.14323 31.4017 1.21484 31.5059 1.29297L30.7441 2.69922C30.5618 2.59505 30.3405 2.52995 30.0801 2.50391C29.8327 2.47786 29.6569 2.46484 29.5527 2.46484ZM35.959 12.6797C35.959 13.2656 36.0762 13.7018 36.3105 13.9883C36.5579 14.2747 36.9095 14.444 37.3652 14.4961V16.0781C37.3132 16.0911 37.2285 16.0977 37.1113 16.0977C36.6686 16.0977 36.2389 16.0391 35.8223 15.9219C35.4186 15.8047 35.0605 15.6159 34.748 15.3555C34.4355 15.0951 34.1882 14.75 34.0059 14.3203C33.8366 13.8906 33.752 13.3633 33.752 12.7383C33.752 12.1393 33.8757 11.625 34.123 11.1953C34.3835 10.7526 34.709 10.3945 35.0996 10.1211C35.5033 9.83464 35.959 9.6263 36.4668 9.49609C36.9746 9.35286 37.4889 9.28125 38.0098 9.28125H38.8691V10.668H38.4395C38.179 10.668 37.9056 10.694 37.6191 10.7461C37.3327 10.7982 37.0658 10.8958 36.8184 11.0391C36.571 11.1823 36.3626 11.3906 36.1934 11.6641C36.0371 11.9245 35.959 12.263 35.959 12.6797ZM42.0332 12.7383C42.0332 12.8424 42.0397 12.9987 42.0527 13.207C42.0658 13.4023 42.0918 13.6042 42.1309 13.8125C42.1699 14.0208 42.2285 14.2096 42.3066 14.3789C42.3978 14.5482 42.515 14.6589 42.6582 14.7109L42.0332 16.0195C41.8639 16.0195 41.6816 15.9805 41.4863 15.9023C41.304 15.8242 41.1217 15.7135 40.9395 15.5703C40.7702 15.4271 40.6204 15.2708 40.4902 15.1016C40.373 14.9193 40.2819 14.724 40.2168 14.5156C40.0866 14.8411 39.8262 15.1341 39.4355 15.3945C39.0579 15.6419 38.6348 15.8242 38.166 15.9414V14.457C38.4785 14.3919 38.7585 14.2682 39.0059 14.0859C39.2663 13.8906 39.4876 13.6628 39.6699 13.4023V9.28125C39.6699 8.64323 39.6374 8.13542 39.5723 7.75781C39.5072 7.38021 39.3965 7.10677 39.2402 6.9375C39.084 6.75521 38.8887 6.64453 38.6543 6.60547C38.4329 6.55339 38.166 6.52734 37.8535 6.52734C37.5671 6.52734 37.2936 6.56641 37.0332 6.64453C36.7858 6.70964 36.5514 6.79427 36.3301 6.89844C36.1217 6.98958 35.9329 7.09375 35.7637 7.21094C35.6074 7.32812 35.4902 7.41927 35.4121 7.48438L34.5332 6.13672C34.6634 5.99349 34.8587 5.85026 35.1191 5.70703C35.3796 5.55078 35.679 5.41406 36.0176 5.29688C36.3561 5.17969 36.7207 5.08854 37.1113 5.02344C37.515 4.94531 37.9316 4.90625 38.3613 4.90625C38.752 4.90625 39.1296 4.94531 39.4941 5.02344C39.8717 5.10156 40.2103 5.23177 40.5098 5.41406C40.8223 5.59635 41.0892 5.84375 41.3105 6.15625C41.5449 6.45573 41.7077 6.83333 41.7988 7.28906C41.89 7.74479 41.9486 8.20703 41.9746 8.67578C42.0137 9.13151 42.0332 9.58724 42.0332 10.043V12.582V12.7383ZM51.3887 4.96484L52.7754 6.35156L46.3496 10.8242L44.9434 9.41797L51.3887 4.96484ZM48.9277 12.6406C48.9277 13.0833 48.9863 13.4349 49.1035 13.6953C49.2207 13.9427 49.3835 14.1315 49.5918 14.2617C49.8001 14.3789 50.0345 14.457 50.2949 14.4961C50.5684 14.5352 50.8548 14.5547 51.1543 14.5547V16C50.985 16.026 50.8158 16.0456 50.6465 16.0586C50.5033 16.0716 50.334 16.0781 50.1387 16.0781C49.9434 16.0911 49.748 16.0977 49.5527 16.0977C49.3574 16.0977 49.1556 16.0911 48.9473 16.0781C48.752 16.0651 48.5827 16.0456 48.4395 16.0195C47.9967 15.9284 47.6517 15.7331 47.4043 15.4336C47.1569 15.1341 46.9681 14.8021 46.8379 14.4375C46.7077 14.0599 46.623 13.6953 46.584 13.3438C46.5579 12.9922 46.5449 12.7188 46.5449 12.5234V12.2891V0.824219H48.9277V12.6406ZM60.8809 1.60547H63.2246V16H60.8809V1.60547ZM65.0215 1.60547C65.6335 1.60547 66.2389 1.70312 66.8379 1.89844C67.4368 2.09375 67.9707 2.38672 68.4395 2.77734C68.9212 3.16797 69.3053 3.64323 69.5918 4.20312C69.8913 4.75 70.041 5.36849 70.041 6.05859C70.041 6.78776 69.9173 7.45182 69.6699 8.05078C69.4225 8.63672 69.0775 9.13151 68.6348 9.53516C68.1921 9.9388 67.6582 10.2513 67.0332 10.4727C66.4082 10.694 65.7181 10.8047 64.9629 10.8047H64.0254V9.08594H65.373C65.6595 9.08594 65.9395 9.04036 66.2129 8.94922C66.4993 8.84505 66.7598 8.68229 66.9941 8.46094C67.2285 8.23958 67.4173 7.93359 67.5605 7.54297C67.7038 7.13932 67.7754 6.64453 67.7754 6.05859C67.7754 5.82422 67.7428 5.55729 67.6777 5.25781C67.6126 4.94531 67.4759 4.65234 67.2676 4.37891C67.0723 4.09245 66.7923 3.85807 66.4277 3.67578C66.0632 3.48047 65.5814 3.38281 64.9824 3.38281H64.0254V1.60547H65.0215ZM74.709 4.98438L74.9629 6.11719V12.0938V12.1328V16H72.5996V4.98438H74.709ZM75.7637 5.47266C76.0892 5.29036 76.4798 5.15365 76.9355 5.0625C77.3913 4.95833 78.0098 4.90625 78.791 4.90625V7.36719C78.4264 7.26302 77.9837 7.20443 77.4629 7.19141C77.1764 7.19141 76.8835 7.21745 76.584 7.26953C76.2975 7.30859 76.0241 7.3737 75.7637 7.46484V5.47266ZM86.4863 4.92578C87.2025 4.96484 87.8535 5.14062 88.4395 5.45312C89.0254 5.7526 89.5137 6.15625 89.9043 6.66406C90.3079 7.15885 90.6204 7.73828 90.8418 8.40234C91.0632 9.06641 91.1738 9.77604 91.1738 10.5312C91.1738 11.2865 91.0566 11.9961 90.8223 12.6602C90.6009 13.3112 90.2884 13.8841 89.8848 14.3789C89.4811 14.8607 88.9863 15.2513 88.4004 15.5508C87.8145 15.8503 87.1764 16.026 86.4863 16.0781V14.2031C87.1374 14.0599 87.6647 13.6497 88.0684 12.9727C88.485 12.2956 88.6934 11.4818 88.6934 10.5312C88.6934 10.0495 88.6413 9.60026 88.5371 9.18359C88.446 8.75391 88.3027 8.36979 88.1074 8.03125C87.9121 7.69271 87.6777 7.41276 87.4043 7.19141C87.1309 6.97005 86.8249 6.82682 86.4863 6.76172V4.92578ZM81.0371 10.4922C81.0371 9.73698 81.1478 9.03385 81.3691 8.38281C81.5905 7.73177 81.903 7.16536 82.3066 6.68359C82.7233 6.1888 83.2181 5.79167 83.791 5.49219C84.3639 5.19271 84.9954 5.01042 85.6855 4.94531V6.76172C85.0345 6.90495 84.5137 7.3151 84.123 7.99219C83.7324 8.66927 83.5371 9.48307 83.5371 10.4336C83.5371 10.9154 83.5827 11.3711 83.6738 11.8008C83.778 12.2305 83.9212 12.6146 84.1035 12.9531C84.2858 13.2917 84.5072 13.5716 84.7676 13.793C85.041 14.0143 85.347 14.151 85.6855 14.2031V16.0781C84.9694 16.026 84.3249 15.8503 83.752 15.5508C83.179 15.2383 82.6908 14.8346 82.2871 14.3398C81.8835 13.8451 81.571 13.2656 81.3496 12.6016C81.1413 11.9375 81.0371 11.2344 81.0371 10.4922ZM97.3848 12.6602C97.3848 13.1029 97.4434 13.4479 97.5605 13.6953C97.6777 13.9427 97.8405 14.1315 98.0488 14.2617C98.2702 14.3919 98.5111 14.4766 98.7715 14.5156C99.0449 14.5417 99.3314 14.5547 99.6309 14.5547V16C99.4616 16.026 99.2923 16.0456 99.123 16.0586C98.9798 16.0716 98.804 16.0781 98.5957 16.0781C98.4004 16.0911 98.2051 16.0977 98.0098 16.0977C97.8145 16.0977 97.6126 16.0911 97.4043 16.0781C97.209 16.0651 97.0397 16.0456 96.8965 16.0195C96.4538 15.9414 96.1087 15.7526 95.8613 15.4531C95.6139 15.1406 95.4251 14.8021 95.2949 14.4375C95.1777 14.0599 95.0996 13.6953 95.0605 13.3438C95.0345 12.9922 95.0215 12.7188 95.0215 12.5234V6.58594H93.5762V4.98438H95.0215V1.85938H97.3848V4.98438H99.1426V6.58594H97.3848V12.6602ZM104.318 12.6797C104.318 13.2656 104.436 13.7018 104.67 13.9883C104.917 14.2747 105.269 14.444 105.725 14.4961V16.0781C105.673 16.0911 105.588 16.0977 105.471 16.0977C105.028 16.0977 104.598 16.0391 104.182 15.9219C103.778 15.8047 103.42 15.6159 103.107 15.3555C102.795 15.0951 102.548 14.75 102.365 14.3203C102.196 13.8906 102.111 13.3633 102.111 12.7383C102.111 12.1393 102.235 11.625 102.482 11.1953C102.743 10.7526 103.068 10.3945 103.459 10.1211C103.863 9.83464 104.318 9.6263 104.826 9.49609C105.334 9.35286 105.848 9.28125 106.369 9.28125H107.229V10.668H106.799C106.538 10.668 106.265 10.694 105.979 10.7461C105.692 10.7982 105.425 10.8958 105.178 11.0391C104.93 11.1823 104.722 11.3906 104.553 11.6641C104.396 11.9245 104.318 12.263 104.318 12.6797ZM110.393 12.7383C110.393 12.8424 110.399 12.9987 110.412 13.207C110.425 13.4023 110.451 13.6042 110.49 13.8125C110.529 14.0208 110.588 14.2096 110.666 14.3789C110.757 14.5482 110.874 14.6589 111.018 14.7109L110.393 16.0195C110.223 16.0195 110.041 15.9805 109.846 15.9023C109.663 15.8242 109.481 15.7135 109.299 15.5703C109.13 15.4271 108.98 15.2708 108.85 15.1016C108.732 14.9193 108.641 14.724 108.576 14.5156C108.446 14.8411 108.186 15.1341 107.795 15.3945C107.417 15.6419 106.994 15.8242 106.525 15.9414V14.457C106.838 14.3919 107.118 14.2682 107.365 14.0859C107.626 13.8906 107.847 13.6628 108.029 13.4023V9.28125C108.029 8.64323 107.997 8.13542 107.932 7.75781C107.867 7.38021 107.756 7.10677 107.6 6.9375C107.443 6.75521 107.248 6.64453 107.014 6.60547C106.792 6.55339 106.525 6.52734 106.213 6.52734C105.926 6.52734 105.653 6.56641 105.393 6.64453C105.145 6.70964 104.911 6.79427 104.689 6.89844C104.481 6.98958 104.292 7.09375 104.123 7.21094C103.967 7.32812 103.85 7.41927 103.771 7.48438L102.893 6.13672C103.023 5.99349 103.218 5.85026 103.479 5.70703C103.739 5.55078 104.038 5.41406 104.377 5.29688C104.715 5.17969 105.08 5.08854 105.471 5.02344C105.874 4.94531 106.291 4.90625 106.721 4.90625C107.111 4.90625 107.489 4.94531 107.854 5.02344C108.231 5.10156 108.57 5.23177 108.869 5.41406C109.182 5.59635 109.449 5.84375 109.67 6.15625C109.904 6.45573 110.067 6.83333 110.158 7.28906C110.249 7.74479 110.308 8.20703 110.334 8.67578C110.373 9.13151 110.393 9.58724 110.393 10.043V12.582V12.7383ZM113.869 8.12891C113.869 7.63411 113.96 7.19141 114.143 6.80078C114.325 6.39714 114.579 6.05859 114.904 5.78516C115.23 5.4987 115.594 5.27734 115.998 5.12109C116.415 4.95182 116.844 4.84766 117.287 4.80859V6.76172C116.949 6.82682 116.682 6.96354 116.486 7.17188C116.304 7.38021 116.213 7.67318 116.213 8.05078C116.213 8.36328 116.311 8.61719 116.506 8.8125C116.714 8.99479 116.975 9.15755 117.287 9.30078V11.3906C117.066 11.3255 116.838 11.2539 116.604 11.1758C116.382 11.0846 116.161 10.987 115.939 10.8828C115.249 10.5182 114.729 10.1341 114.377 9.73047C114.038 9.32682 113.869 8.79297 113.869 8.12891ZM120.393 7.30859C120.041 7.1263 119.663 6.98958 119.26 6.89844C118.869 6.80729 118.479 6.7487 118.088 6.72266V4.78906C118.674 4.8151 119.214 4.89974 119.709 5.04297C120.204 5.17318 120.686 5.38802 121.154 5.6875L120.393 7.30859ZM114.904 13.5391C115.165 13.7214 115.471 13.8906 115.822 14.0469C116.187 14.2031 116.643 14.2812 117.189 14.2812H117.287V16.0977C116.962 16.0977 116.662 16.0846 116.389 16.0586C116.115 16.0456 115.842 16.0065 115.568 15.9414C115.308 15.8633 115.041 15.7591 114.768 15.6289C114.494 15.4987 114.208 15.3294 113.908 15.1211L114.904 13.5391ZM118.088 9.61328C118.479 9.74349 118.876 9.88672 119.279 10.043C119.683 10.1992 120.048 10.3945 120.373 10.6289C120.712 10.8633 120.985 11.1562 121.193 11.5078C121.415 11.8464 121.525 12.276 121.525 12.7969C121.525 13.3047 121.434 13.7474 121.252 14.125C121.07 14.5026 120.822 14.8281 120.51 15.1016C120.21 15.375 119.852 15.5898 119.436 15.7461C119.019 15.9023 118.57 16.0065 118.088 16.0586V14.2031C118.531 14.125 118.869 13.9883 119.104 13.793C119.351 13.5846 119.475 13.3112 119.475 12.9727C119.475 12.6341 119.338 12.3737 119.064 12.1914C118.804 11.9961 118.479 11.8268 118.088 11.6836V9.61328ZM126.955 16H124.572V4.98438H126.955V16ZM127.17 1.46875C127.17 1.85938 127.033 2.19141 126.76 2.46484C126.486 2.72526 126.154 2.85547 125.764 2.85547C125.373 2.85547 125.041 2.71875 124.768 2.44531C124.507 2.17188 124.377 1.84635 124.377 1.46875C124.377 1.07812 124.514 0.746094 124.787 0.472656C125.061 0.199219 125.386 0.0625 125.764 0.0625C126.154 0.0625 126.486 0.199219 126.76 0.472656C127.033 0.746094 127.17 1.07812 127.17 1.46875ZM132.58 10.9805C132.58 11.4362 132.6 11.8659 132.639 12.2695C132.678 12.6602 132.762 13.0052 132.893 13.3047C133.023 13.6042 133.218 13.8451 133.479 14.0273C133.739 14.2096 134.084 14.3008 134.514 14.3008C134.683 14.3008 134.924 14.2747 135.236 14.2227C135.549 14.1706 135.848 14.0859 136.135 13.9688V15.4141C135.796 15.5964 135.425 15.7591 135.021 15.9023C134.631 16.0326 134.24 16.0977 133.85 16.0977C133.537 16.0977 133.257 16.0651 133.01 16C132.762 15.9479 132.528 15.8633 132.307 15.7461C132.098 15.6159 131.896 15.4727 131.701 15.3164C131.506 15.1602 131.311 14.9844 131.115 14.7891C130.894 14.5677 130.718 14.3138 130.588 14.0273C130.458 13.7279 130.36 13.4219 130.295 13.1094C130.243 12.7839 130.21 12.4583 130.197 12.1328C130.197 11.8073 130.197 11.4883 130.197 11.1758V4.98438H132.58V10.9805ZM139.318 4.98438V16H137.189L136.936 14.8672V4.98438H139.318ZM147.346 10.4727L151.721 16H149.025L145.822 11.7812V9.06641L148.557 4.98438H151.213L147.346 10.4727ZM142.639 16V0.824219H145.021V16H142.639Z" fill="#009BDF"/>
</svg>
